# xmcd
#
# Track frame offsets:
#   150
#   17677
#   30850
#   46300
#   61567
#   74771
#   95759
#   109647
#   124505
#   138017
#   150931
#   167716
#   180203
#   197140
#   212708
#   225656
#   244854
#
# Disc length: 3462 seconds
#
# Revision: 0
# Processed by: cddbd v1.5.2PL0 Copyright (c) Steve Scherf et al.
# Submitted via: uFREEDB ActiveX Control 1.5
#
DISCID=d10d8411
DTITLE=Zé Mineiro e Paulistano - Saudade Doída
DYEAR=1900
DGENRE=Country
TTITLE0=Saudade Doída
TTITLE1=Coxinhas da Vizinha
TTITLE2=Chorte Apertado
TTITLE3=Mulher Louca
TTITLE4=Garrafada
TTITLE5=Voltei Pra Ficar Amor
TTITLE6=Caminhoneiro
TTITLE7=Não Há Mais Romance
TTITLE8=Por Onde Anda Você
TTITLE9=Cowboy da Estrada
TTITLE10=Separar na Boa
TTITLE11=Bicho Mulher
TTITLE12=Pare de Sofrer
TTITLE13=Apagando Fogo
TTITLE14=Pisa, Pisa
TTITLE15=Sem Rumo
TTITLE16=Lamento
EXTD=
EXTT0=
EXTT1=
EXTT2=
EXTT3=
EXTT4=
EXTT5=
EXTT6=
EXTT7=
EXTT8=
EXTT9=
EXTT10=
EXTT11=
EXTT12=
EXTT13=
EXTT14=
EXTT15=
EXTT16=
PLAYORDER=
